#!OML:ASF H:\GeneralSubjects\Female5\Project 1\Capture day 1\Session 1\Female5.ASF
:FULLY-SPECIFIED
:DEGREES
163
root 2.59483 15.8924 -7.38394 -203.748 85.4713 -212.023
lowerback 8.40548 -0.400389 -5.32166
upperback -7.62255 -0.273251 6.7007
thorax -13.154 0.928114 10.6348
lowerneck -17.8593 -4.92063 -4.56167
upperneck 43.3241 -4.35833 0.839358
head 20.1719 -1.6082 0.56098
rclavicle -5.36719e-015 -7.95139e-015
rhumerus -72.2994 24.1424 -83.7438
rradius 16.3285
rwrist 13.0905
rhand -13.3234 -24.5511
rfingers 7.12502
rthumb 12.7814 -54.1398
lclavicle -5.36719e-015 -7.95139e-015
lhumerus -52.3108 18.0544 74.0176
lradius 30.9728
lwrist -16.0551
lhand -23.4997 33.184
lfingers 7.12502
lthumb 2.96051 63.1432
rfemur -22.7471 -8.79438 22.1946
rtibia 53.3732
rfoot -17.5648 -17.2067
rtoes -5.84933
lfemur -10.5764 -16.9777 -34.6651
ltibia 11.5679
lfoot -11.5632 7.14918
ltoes -65.0336
164
root 2.88114 15.9199 -7.38075 -208.135 85.4464 -216.331
lowerback 8.47541 -0.726552 -5.32205
upperback -7.36077 -0.768537 6.57451
thorax -12.7685 0.635983 10.5619
lowerneck -18.1682 -4.84364 -4.42372
upperneck 43.5559 -4.47394 1.22794
head 20.4386 -1.57635 0.702002
rclavicle -8.64713e-015 2.70347e-014
rhumerus -72.6378 21.0669 -80.1389
rradius 15.0299
rwrist 12.3399
rhand -10.2117 -25.6722
rfingers 7.12502
rthumb 15.7798 -55.049
lclavicle -8.64713e-015 2.70347e-014
lhumerus -49.9415 17.5848 73.7171
lradius 32.481
lwrist -14.955
lhand -25.2697 33.9633
lfingers 7.12502
lthumb 1.25105 63.9394
rfemur -25.4545 -8.23384 22.16
rtibia 51.3183
rfoot -17.7571 -15.7759
rtoes -5.99899
lfemur -8.42571 -17.3226 -35.3604
ltibia 10.1939
lfoot -12.1109 7.45354
ltoes -64.8679
165
root 3.16679 15.9391 -7.37676 -213.827 85.4196 -221.842
lowerback 8.95333 -0.990504 -5.55431
upperback -7.25296 -1.20783 6.49742
thorax -12.8356 0.434459 10.713
lowerneck -18.2022 -4.76939 -4.2617
upperneck 43.6561 -4.49175 1.33866
head 20.5156 -1.54535 0.723757
rclavicle -2.28602e-015 -2.70347e-014
rhumerus -72.9948 18.3 -75.7108
rradius 13.686
rwrist 13.17
rhand -5.70586 -26.662
rfingers 7.12502
rthumb 20.1151 -55.6406
lclavicle -2.28602e-015 -2.70347e-014
lhumerus -47.9459 16.899 73.4276
lradius 34.1104
lwrist -13.2563
lhand -26.6152 35.1303
lfingers 7.12502
lthumb -0.0483955 65.11
rfemur -27.6712 -7.43386 22.0033
rtibia 48.4779
rfoot -18.6658 -15.4494
rtoes -8.28782
lfemur -6.23942 -17.6794 -36.1843
ltibia 8.99517
lfoot -12.5147 7.69643
ltoes -64.5458
166
root 3.45381 15.9503 -7.37227 -220.7 85.3342 -228.515
lowerback 9.4442 -1.20614 -5.78085
upperback -7.18467 -1.59531 6.3182
thorax -12.9678 0.256248 10.7383
lowerneck -17.8873 -4.62293 -3.47324
upperneck 43.3466 -4.41901 0.853007
head 20.1388 -1.47458 0.350244
rclavicle -2.98177e-016 -9.54166e-015
rhumerus -73.0883 15.6728 -70.7157
rradius 12.3884
rwrist 14.9668
rhand -5.11135 -26.304
rfingers 7.12502
rthumb 20.6864 -55.2216
lclavicle -2.98177e-016 -9.54166e-015
lhumerus -45.8906 16.2259 72.9666
lradius 35.5639
lwrist -11.8169
lhand -27.6619 36.8776
lfingers 7.12502
lthumb -1.05934 66.8547
rfemur -29.429 -6.43678 21.709
rtibia 45.0196
rfoot -20.4004 -16.0669
rtoes -9.59338
lfemur -4.05487 -17.8712 -37.1144
ltibia 7.79146
lfoot -12.9858 7.7948
ltoes -64.3131
167
root 3.74022 15.9541 -7.36047 -227.02 85.2894 -234.789
lowerback 9.67571 -1.40303 -5.91468
upperback -7.12455 -1.93544 6.1142
thorax -12.9606 0.0823134 10.6538
lowerneck -18.1146 -4.68927 -3.77266
upperneck 43.6231 -4.65968 1.40871
head 20.4498 -1.53605 0.628931
rclavicle 2.98177e-016 1.74931e-014
rhumerus -72.8999 13.3011 -65.7256
rradius 11.2496
rwrist 17.1265
rhand -1.36935 -28.3904
rfingers 7.12502
rthumb 24.2781 -56.8731
lclavicle 2.98177e-016 1.74931e-014
lhumerus -43.7225 15.2499 72.5665
lradius 37.0733
lwrist -10.2627
lhand -28.5806 37.8287
lfingers 7.12502
lthumb -1.94665 67.7996
rfemur -30.8074 -4.90088 21.426
rtibia 40.7341
rfoot -22.9172 -17.5141
rtoes -6.60349
lfemur -2.06454 -18.0237 -37.8647
ltibia 6.52916
lfoot -13.6378 8.09548
ltoes -64.2901
